<mxfile host="app.diagrams.net" modified="2022-10-17T05:41:26.199Z" agent="5.0 (Windows NT 10.0; Win64; x64) AppleWebKit/537.36 (KHTML, like Gecko) Chrome/106.0.0.0 Safari/537.36" etag="cGw25x9ZZGGNt56HmpqG" version="20.4.0" type="github">
  <diagram id="iWjez-dETl6D_8sgYMnn" name="페이지-1">
    <mxGraphModel dx="1000" dy="743" grid="0" gridSize="10" guides="1" tooltips="1" connect="1" arrows="1" fold="1" page="1" pageScale="1" pageWidth="827" pageHeight="1169" math="0" shadow="0">
      <root>
        <mxCell id="0" />
        <mxCell id="1" parent="0" />
        <mxCell id="hZEUCgUpo-3jwokglDg8-1" value="고객" style="rounded=1;arcSize=10;whiteSpace=wrap;html=1;align=center;fillColor=#e1d5e7;strokeColor=#9673a6;" vertex="1" parent="1">
          <mxGeometry x="30" y="220" width="140" height="40" as="geometry" />
        </mxCell>
        <mxCell id="hZEUCgUpo-3jwokglDg8-2" value="도서" style="rounded=1;arcSize=10;whiteSpace=wrap;html=1;align=center;fillColor=#e1d5e7;strokeColor=#9673a6;" vertex="1" parent="1">
          <mxGeometry x="570" y="220" width="140" height="40" as="geometry" />
        </mxCell>
        <mxCell id="hZEUCgUpo-3jwokglDg8-3" value="공급처" style="rounded=1;arcSize=10;whiteSpace=wrap;html=1;align=center;fillColor=#e1d5e7;strokeColor=#9673a6;" vertex="1" parent="1">
          <mxGeometry x="570" y="495" width="140" height="40" as="geometry" />
        </mxCell>
        <mxCell id="hZEUCgUpo-3jwokglDg8-4" value="아이디" style="ellipse;whiteSpace=wrap;html=1;align=center;fontStyle=4;" vertex="1" parent="1">
          <mxGeometry x="10" y="140" width="100" height="40" as="geometry" />
        </mxCell>
        <mxCell id="hZEUCgUpo-3jwokglDg8-5" value="이름" style="ellipse;whiteSpace=wrap;html=1;align=center;" vertex="1" parent="1">
          <mxGeometry x="90" y="80" width="100" height="40" as="geometry" />
        </mxCell>
        <mxCell id="hZEUCgUpo-3jwokglDg8-6" value="적립금" style="ellipse;whiteSpace=wrap;html=1;align=center;" vertex="1" parent="1">
          <mxGeometry x="140" y="140" width="100" height="40" as="geometry" />
        </mxCell>
        <mxCell id="hZEUCgUpo-3jwokglDg8-7" value="출판사" style="ellipse;whiteSpace=wrap;html=1;align=center;" vertex="1" parent="1">
          <mxGeometry x="510" y="570" width="100" height="40" as="geometry" />
        </mxCell>
        <mxCell id="hZEUCgUpo-3jwokglDg8-8" value="위치" style="ellipse;whiteSpace=wrap;html=1;align=center;" vertex="1" parent="1">
          <mxGeometry x="700" y="560" width="100" height="40" as="geometry" />
        </mxCell>
        <mxCell id="hZEUCgUpo-3jwokglDg8-9" value="전화번호" style="ellipse;whiteSpace=wrap;html=1;align=center;" vertex="1" parent="1">
          <mxGeometry x="610" y="610" width="100" height="40" as="geometry" />
        </mxCell>
        <mxCell id="hZEUCgUpo-3jwokglDg8-11" value="제목" style="ellipse;whiteSpace=wrap;html=1;align=center;" vertex="1" parent="1">
          <mxGeometry x="640" y="100" width="100" height="40" as="geometry" />
        </mxCell>
        <mxCell id="hZEUCgUpo-3jwokglDg8-12" value="저자" style="ellipse;whiteSpace=wrap;html=1;align=center;" vertex="1" parent="1">
          <mxGeometry x="710" y="150" width="100" height="40" as="geometry" />
        </mxCell>
        <mxCell id="hZEUCgUpo-3jwokglDg8-13" value="가격" style="ellipse;whiteSpace=wrap;html=1;align=center;" vertex="1" parent="1">
          <mxGeometry x="560" y="60" width="100" height="40" as="geometry" />
        </mxCell>
        <mxCell id="hZEUCgUpo-3jwokglDg8-14" value="" style="endArrow=none;html=1;rounded=0;exitX=1;exitY=0.5;exitDx=0;exitDy=0;entryX=0;entryY=0.5;entryDx=0;entryDy=0;" edge="1" parent="1" source="hZEUCgUpo-3jwokglDg8-1" target="hZEUCgUpo-3jwokglDg8-16">
          <mxGeometry relative="1" as="geometry">
            <mxPoint x="250" y="480" as="sourcePoint" />
            <mxPoint x="320" y="240" as="targetPoint" />
          </mxGeometry>
        </mxCell>
        <mxCell id="hZEUCgUpo-3jwokglDg8-15" value="N" style="resizable=0;html=1;align=right;verticalAlign=bottom;" connectable="0" vertex="1" parent="hZEUCgUpo-3jwokglDg8-14">
          <mxGeometry x="1" relative="1" as="geometry" />
        </mxCell>
        <mxCell id="hZEUCgUpo-3jwokglDg8-16" value="구매" style="shape=rhombus;perimeter=rhombusPerimeter;whiteSpace=wrap;html=1;align=center;fillColor=#fff2cc;strokeColor=#d6b656;" vertex="1" parent="1">
          <mxGeometry x="280" y="210" width="120" height="60" as="geometry" />
        </mxCell>
        <mxCell id="hZEUCgUpo-3jwokglDg8-17" value="" style="endArrow=none;html=1;rounded=0;entryX=0;entryY=0.5;entryDx=0;entryDy=0;" edge="1" parent="1" source="hZEUCgUpo-3jwokglDg8-16" target="hZEUCgUpo-3jwokglDg8-2">
          <mxGeometry relative="1" as="geometry">
            <mxPoint x="250" y="480" as="sourcePoint" />
            <mxPoint x="410" y="480" as="targetPoint" />
          </mxGeometry>
        </mxCell>
        <mxCell id="hZEUCgUpo-3jwokglDg8-18" value="N" style="resizable=0;html=1;align=left;verticalAlign=bottom;" connectable="0" vertex="1" parent="hZEUCgUpo-3jwokglDg8-17">
          <mxGeometry x="-1" relative="1" as="geometry" />
        </mxCell>
        <mxCell id="hZEUCgUpo-3jwokglDg8-19" value="1" style="resizable=0;html=1;align=right;verticalAlign=bottom;" connectable="0" vertex="1" parent="hZEUCgUpo-3jwokglDg8-17">
          <mxGeometry x="1" relative="1" as="geometry" />
        </mxCell>
        <mxCell id="hZEUCgUpo-3jwokglDg8-20" value="" style="endArrow=none;html=1;rounded=0;exitX=0.5;exitY=1;exitDx=0;exitDy=0;entryX=0.5;entryY=0;entryDx=0;entryDy=0;" edge="1" parent="1" source="hZEUCgUpo-3jwokglDg8-2" target="hZEUCgUpo-3jwokglDg8-3">
          <mxGeometry relative="1" as="geometry">
            <mxPoint x="250" y="480" as="sourcePoint" />
            <mxPoint x="560" y="490" as="targetPoint" />
          </mxGeometry>
        </mxCell>
        <mxCell id="hZEUCgUpo-3jwokglDg8-21" value="M" style="resizable=0;html=1;align=left;verticalAlign=bottom;" connectable="0" vertex="1" parent="hZEUCgUpo-3jwokglDg8-20">
          <mxGeometry x="-1" relative="1" as="geometry" />
        </mxCell>
        <mxCell id="hZEUCgUpo-3jwokglDg8-22" value="N" style="resizable=0;html=1;align=right;verticalAlign=bottom;" connectable="0" vertex="1" parent="hZEUCgUpo-3jwokglDg8-20">
          <mxGeometry x="1" relative="1" as="geometry" />
        </mxCell>
        <mxCell id="hZEUCgUpo-3jwokglDg8-23" value="ISBN" style="ellipse;whiteSpace=wrap;html=1;align=center;fontStyle=4;" vertex="1" parent="1">
          <mxGeometry x="510" y="140" width="100" height="40" as="geometry" />
        </mxCell>
        <mxCell id="hZEUCgUpo-3jwokglDg8-26" value="결제방식" style="shape=rhombus;perimeter=rhombusPerimeter;whiteSpace=wrap;html=1;align=center;" vertex="1" parent="1">
          <mxGeometry x="295" y="290" width="90" height="45" as="geometry" />
        </mxCell>
        <mxCell id="hZEUCgUpo-3jwokglDg8-30" value="구매번호" style="ellipse;whiteSpace=wrap;html=1;align=center;fontStyle=4;" vertex="1" parent="1">
          <mxGeometry x="220" y="80" width="100" height="40" as="geometry" />
        </mxCell>
        <mxCell id="hZEUCgUpo-3jwokglDg8-31" value="고객아이디" style="ellipse;whiteSpace=wrap;html=1;align=center;" vertex="1" parent="1">
          <mxGeometry x="400" y="90" width="100" height="40" as="geometry" />
        </mxCell>
        <mxCell id="hZEUCgUpo-3jwokglDg8-32" value="ISBN" style="ellipse;whiteSpace=wrap;html=1;align=center;" vertex="1" parent="1">
          <mxGeometry x="290" y="40" width="100" height="40" as="geometry" />
        </mxCell>
        <mxCell id="hZEUCgUpo-3jwokglDg8-33" value="" style="endArrow=none;html=1;rounded=0;entryX=0.5;entryY=1;entryDx=0;entryDy=0;" edge="1" parent="1" source="hZEUCgUpo-3jwokglDg8-26" target="hZEUCgUpo-3jwokglDg8-16">
          <mxGeometry relative="1" as="geometry">
            <mxPoint x="250" y="380" as="sourcePoint" />
            <mxPoint x="410" y="380" as="targetPoint" />
          </mxGeometry>
        </mxCell>
        <mxCell id="hZEUCgUpo-3jwokglDg8-37" value="" style="shape=table;startSize=0;container=1;collapsible=1;childLayout=tableLayout;fixedRows=1;rowLines=0;fontStyle=0;align=center;resizeLast=1;strokeColor=none;fillColor=none;collapsible=0;" vertex="1" parent="1">
          <mxGeometry x="50" y="260" width="90" height="30" as="geometry" />
        </mxCell>
        <mxCell id="hZEUCgUpo-3jwokglDg8-38" value="" style="shape=tableRow;horizontal=0;startSize=0;swimlaneHead=0;swimlaneBody=0;fillColor=none;collapsible=0;dropTarget=0;points=[[0,0.5],[1,0.5]];portConstraint=eastwest;top=0;left=0;right=0;bottom=1;" vertex="1" parent="hZEUCgUpo-3jwokglDg8-37">
          <mxGeometry width="90" height="30" as="geometry" />
        </mxCell>
        <mxCell id="hZEUCgUpo-3jwokglDg8-39" value="PK" style="shape=partialRectangle;connectable=0;fillColor=none;top=0;left=0;bottom=0;right=0;fontStyle=1;overflow=hidden;" vertex="1" parent="hZEUCgUpo-3jwokglDg8-38">
          <mxGeometry width="30" height="30" as="geometry">
            <mxRectangle width="30" height="30" as="alternateBounds" />
          </mxGeometry>
        </mxCell>
        <mxCell id="hZEUCgUpo-3jwokglDg8-40" value="아이디" style="shape=partialRectangle;connectable=0;fillColor=none;top=0;left=0;bottom=0;right=0;align=left;spacingLeft=6;fontStyle=5;overflow=hidden;" vertex="1" parent="hZEUCgUpo-3jwokglDg8-38">
          <mxGeometry x="30" width="60" height="30" as="geometry">
            <mxRectangle width="60" height="30" as="alternateBounds" />
          </mxGeometry>
        </mxCell>
        <mxCell id="hZEUCgUpo-3jwokglDg8-41" value="" style="shape=table;startSize=0;container=1;collapsible=1;childLayout=tableLayout;fixedRows=1;rowLines=0;fontStyle=0;align=center;resizeLast=1;strokeColor=none;fillColor=none;collapsible=0;" vertex="1" parent="1">
          <mxGeometry x="660" y="260" width="90" height="30" as="geometry" />
        </mxCell>
        <mxCell id="hZEUCgUpo-3jwokglDg8-42" value="" style="shape=tableRow;horizontal=0;startSize=0;swimlaneHead=0;swimlaneBody=0;fillColor=none;collapsible=0;dropTarget=0;points=[[0,0.5],[1,0.5]];portConstraint=eastwest;top=0;left=0;right=0;bottom=1;" vertex="1" parent="hZEUCgUpo-3jwokglDg8-41">
          <mxGeometry width="90" height="30" as="geometry" />
        </mxCell>
        <mxCell id="hZEUCgUpo-3jwokglDg8-43" value="PK" style="shape=partialRectangle;connectable=0;fillColor=none;top=0;left=0;bottom=0;right=0;fontStyle=1;overflow=hidden;" vertex="1" parent="hZEUCgUpo-3jwokglDg8-42">
          <mxGeometry width="30" height="30" as="geometry">
            <mxRectangle width="30" height="30" as="alternateBounds" />
          </mxGeometry>
        </mxCell>
        <mxCell id="hZEUCgUpo-3jwokglDg8-44" value="ISBN" style="shape=partialRectangle;connectable=0;fillColor=none;top=0;left=0;bottom=0;right=0;align=left;spacingLeft=6;fontStyle=5;overflow=hidden;" vertex="1" parent="hZEUCgUpo-3jwokglDg8-42">
          <mxGeometry x="30" width="60" height="30" as="geometry">
            <mxRectangle width="60" height="30" as="alternateBounds" />
          </mxGeometry>
        </mxCell>
        <mxCell id="hZEUCgUpo-3jwokglDg8-45" value="" style="endArrow=none;html=1;rounded=0;entryX=0.61;entryY=1;entryDx=0;entryDy=0;entryPerimeter=0;" edge="1" parent="1" source="hZEUCgUpo-3jwokglDg8-1" target="hZEUCgUpo-3jwokglDg8-4">
          <mxGeometry relative="1" as="geometry">
            <mxPoint x="400" y="380" as="sourcePoint" />
            <mxPoint x="560" y="380" as="targetPoint" />
          </mxGeometry>
        </mxCell>
        <mxCell id="hZEUCgUpo-3jwokglDg8-46" value="" style="endArrow=none;html=1;rounded=0;entryX=0.5;entryY=1;entryDx=0;entryDy=0;exitX=0.5;exitY=0;exitDx=0;exitDy=0;" edge="1" parent="1" source="hZEUCgUpo-3jwokglDg8-1" target="hZEUCgUpo-3jwokglDg8-5">
          <mxGeometry relative="1" as="geometry">
            <mxPoint x="95.5" y="230" as="sourcePoint" />
            <mxPoint x="81" y="210" as="targetPoint" />
          </mxGeometry>
        </mxCell>
        <mxCell id="hZEUCgUpo-3jwokglDg8-47" value="" style="endArrow=none;html=1;rounded=0;entryX=0.5;entryY=1;entryDx=0;entryDy=0;exitX=0.75;exitY=0;exitDx=0;exitDy=0;" edge="1" parent="1" source="hZEUCgUpo-3jwokglDg8-1" target="hZEUCgUpo-3jwokglDg8-6">
          <mxGeometry relative="1" as="geometry">
            <mxPoint x="110" y="230" as="sourcePoint" />
            <mxPoint x="130" y="150" as="targetPoint" />
          </mxGeometry>
        </mxCell>
        <mxCell id="hZEUCgUpo-3jwokglDg8-48" value="" style="endArrow=none;html=1;rounded=0;entryX=0.5;entryY=1;entryDx=0;entryDy=0;exitX=0;exitY=0;exitDx=0;exitDy=0;" edge="1" parent="1" source="hZEUCgUpo-3jwokglDg8-16" target="hZEUCgUpo-3jwokglDg8-30">
          <mxGeometry relative="1" as="geometry">
            <mxPoint x="400" y="380" as="sourcePoint" />
            <mxPoint x="560" y="380" as="targetPoint" />
          </mxGeometry>
        </mxCell>
        <mxCell id="hZEUCgUpo-3jwokglDg8-49" value="" style="endArrow=none;html=1;rounded=0;entryX=0.44;entryY=1;entryDx=0;entryDy=0;exitX=0.5;exitY=0;exitDx=0;exitDy=0;entryPerimeter=0;" edge="1" parent="1" source="hZEUCgUpo-3jwokglDg8-16" target="hZEUCgUpo-3jwokglDg8-32">
          <mxGeometry relative="1" as="geometry">
            <mxPoint x="320" y="235" as="sourcePoint" />
            <mxPoint x="294" y="130" as="targetPoint" />
          </mxGeometry>
        </mxCell>
        <mxCell id="hZEUCgUpo-3jwokglDg8-50" value="" style="endArrow=none;html=1;rounded=0;entryX=0.5;entryY=1;entryDx=0;entryDy=0;exitX=0.667;exitY=0.15;exitDx=0;exitDy=0;exitPerimeter=0;" edge="1" parent="1" source="hZEUCgUpo-3jwokglDg8-16" target="hZEUCgUpo-3jwokglDg8-24">
          <mxGeometry relative="1" as="geometry">
            <mxPoint x="330" y="245" as="sourcePoint" />
            <mxPoint x="304" y="140" as="targetPoint" />
          </mxGeometry>
        </mxCell>
        <mxCell id="hZEUCgUpo-3jwokglDg8-51" value="" style="endArrow=none;html=1;rounded=0;exitX=1;exitY=0;exitDx=0;exitDy=0;" edge="1" parent="1" source="hZEUCgUpo-3jwokglDg8-16" target="hZEUCgUpo-3jwokglDg8-31">
          <mxGeometry relative="1" as="geometry">
            <mxPoint x="340" y="255" as="sourcePoint" />
            <mxPoint x="314" y="150" as="targetPoint" />
          </mxGeometry>
        </mxCell>
        <mxCell id="hZEUCgUpo-3jwokglDg8-24" value="구매일" style="ellipse;whiteSpace=wrap;html=1;align=center;" vertex="1" parent="1">
          <mxGeometry x="320" y="120" width="100" height="40" as="geometry" />
        </mxCell>
        <mxCell id="hZEUCgUpo-3jwokglDg8-52" value="" style="endArrow=none;html=1;rounded=0;entryX=0.5;entryY=1;entryDx=0;entryDy=0;exitX=0.25;exitY=0;exitDx=0;exitDy=0;" edge="1" parent="1" source="hZEUCgUpo-3jwokglDg8-2" target="hZEUCgUpo-3jwokglDg8-23">
          <mxGeometry relative="1" as="geometry">
            <mxPoint x="320" y="235" as="sourcePoint" />
            <mxPoint x="294" y="130" as="targetPoint" />
          </mxGeometry>
        </mxCell>
        <mxCell id="hZEUCgUpo-3jwokglDg8-53" value="" style="endArrow=none;html=1;rounded=0;entryX=0.4;entryY=1.025;entryDx=0;entryDy=0;exitX=0.407;exitY=0.025;exitDx=0;exitDy=0;entryPerimeter=0;exitPerimeter=0;" edge="1" parent="1" source="hZEUCgUpo-3jwokglDg8-2" target="hZEUCgUpo-3jwokglDg8-13">
          <mxGeometry relative="1" as="geometry">
            <mxPoint x="615" y="230" as="sourcePoint" />
            <mxPoint x="580" y="210" as="targetPoint" />
          </mxGeometry>
        </mxCell>
        <mxCell id="hZEUCgUpo-3jwokglDg8-54" value="" style="endArrow=none;html=1;rounded=0;entryX=0.35;entryY=1.025;entryDx=0;entryDy=0;entryPerimeter=0;" edge="1" parent="1" source="hZEUCgUpo-3jwokglDg8-2" target="hZEUCgUpo-3jwokglDg8-11">
          <mxGeometry relative="1" as="geometry">
            <mxPoint x="625" y="240" as="sourcePoint" />
            <mxPoint x="590" y="220" as="targetPoint" />
          </mxGeometry>
        </mxCell>
        <mxCell id="hZEUCgUpo-3jwokglDg8-55" value="" style="endArrow=none;html=1;rounded=0;entryX=0.33;entryY=1.025;entryDx=0;entryDy=0;exitX=0.75;exitY=0;exitDx=0;exitDy=0;entryPerimeter=0;" edge="1" parent="1" source="hZEUCgUpo-3jwokglDg8-2" target="hZEUCgUpo-3jwokglDg8-12">
          <mxGeometry relative="1" as="geometry">
            <mxPoint x="635" y="250" as="sourcePoint" />
            <mxPoint x="600" y="230" as="targetPoint" />
          </mxGeometry>
        </mxCell>
        <mxCell id="hZEUCgUpo-3jwokglDg8-56" value="" style="endArrow=none;html=1;rounded=0;exitX=0.893;exitY=1;exitDx=0;exitDy=0;exitPerimeter=0;" edge="1" parent="1" source="hZEUCgUpo-3jwokglDg8-3" target="hZEUCgUpo-3jwokglDg8-8">
          <mxGeometry relative="1" as="geometry">
            <mxPoint x="685" y="230" as="sourcePoint" />
            <mxPoint x="743" y="211" as="targetPoint" />
          </mxGeometry>
        </mxCell>
        <mxCell id="hZEUCgUpo-3jwokglDg8-57" value="" style="endArrow=none;html=1;rounded=0;" edge="1" parent="1" source="hZEUCgUpo-3jwokglDg8-3" target="hZEUCgUpo-3jwokglDg8-9">
          <mxGeometry relative="1" as="geometry">
            <mxPoint x="650" y="550" as="sourcePoint" />
            <mxPoint x="730.7847637077416" y="573.7693131709675" as="targetPoint" />
          </mxGeometry>
        </mxCell>
        <mxCell id="hZEUCgUpo-3jwokglDg8-58" value="" style="endArrow=none;html=1;rounded=0;exitX=0.357;exitY=1;exitDx=0;exitDy=0;exitPerimeter=0;" edge="1" parent="1" source="hZEUCgUpo-3jwokglDg8-3" target="hZEUCgUpo-3jwokglDg8-7">
          <mxGeometry relative="1" as="geometry">
            <mxPoint x="715.02" y="570" as="sourcePoint" />
            <mxPoint x="740.7847637077416" y="583.7693131709675" as="targetPoint" />
          </mxGeometry>
        </mxCell>
        <mxCell id="hZEUCgUpo-3jwokglDg8-59" value="1" style="resizable=0;html=1;align=right;verticalAlign=bottom;" connectable="0" vertex="1" parent="1">
          <mxGeometry x="580" y="250" as="geometry">
            <mxPoint x="-403" y="-10" as="offset" />
          </mxGeometry>
        </mxCell>
        <mxCell id="hZEUCgUpo-3jwokglDg8-60" value="N" style="resizable=0;html=1;align=right;verticalAlign=bottom;" connectable="0" vertex="1" parent="1">
          <mxGeometry x="290" y="246" as="geometry">
            <mxPoint x="-58" y="3" as="offset" />
          </mxGeometry>
        </mxCell>
        <mxCell id="hZEUCgUpo-3jwokglDg8-61" value="M" style="resizable=0;html=1;align=right;verticalAlign=bottom;" connectable="0" vertex="1" parent="1">
          <mxGeometry x="491" y="248" as="geometry" />
        </mxCell>
        <mxCell id="hZEUCgUpo-3jwokglDg8-62" value="" style="shape=table;startSize=0;container=1;collapsible=1;childLayout=tableLayout;fixedRows=1;rowLines=0;fontStyle=0;align=center;resizeLast=1;strokeColor=none;fillColor=none;collapsible=0;" vertex="1" parent="1">
          <mxGeometry x="276" y="341" width="138" height="30" as="geometry" />
        </mxCell>
        <mxCell id="hZEUCgUpo-3jwokglDg8-63" value="" style="shape=tableRow;horizontal=0;startSize=0;swimlaneHead=0;swimlaneBody=0;fillColor=none;collapsible=0;dropTarget=0;points=[[0,0.5],[1,0.5]];portConstraint=eastwest;top=0;left=0;right=0;bottom=0;" vertex="1" parent="hZEUCgUpo-3jwokglDg8-62">
          <mxGeometry width="138" height="30" as="geometry" />
        </mxCell>
        <mxCell id="hZEUCgUpo-3jwokglDg8-64" value="FK" style="shape=partialRectangle;connectable=0;fillColor=none;top=0;left=0;bottom=0;right=0;fontStyle=0;overflow=hidden;" vertex="1" parent="hZEUCgUpo-3jwokglDg8-63">
          <mxGeometry width="30" height="30" as="geometry">
            <mxRectangle width="30" height="30" as="alternateBounds" />
          </mxGeometry>
        </mxCell>
        <mxCell id="hZEUCgUpo-3jwokglDg8-65" value="고객아이디,ISBN" style="shape=partialRectangle;connectable=0;fillColor=none;top=0;left=0;bottom=0;right=0;align=left;spacingLeft=6;fontStyle=0;overflow=hidden;" vertex="1" parent="hZEUCgUpo-3jwokglDg8-63">
          <mxGeometry x="30" width="108" height="30" as="geometry">
            <mxRectangle width="108" height="30" as="alternateBounds" />
          </mxGeometry>
        </mxCell>
      </root>
    </mxGraphModel>
  </diagram>
</mxfile>
